<?xml version="1.0" encoding="UTF-8"?>
<svg version="1.1" xmlns="http://www.w3.org/2000/svg" width="512" height="512">
<path d="M0 0 C1.46049774 0.00273422 1.46049774 0.00273422 2.95050049 0.00552368 C16.9687164 0.04974564 30.60882275 0.45111782 44.375 3.3125 C45.23996094 3.47878906 46.10492188 3.64507812 46.99609375 3.81640625 C89.63891184 12.07577561 129.00699421 31.37326489 161.375 60.3125 C161.90496582 60.78606934 162.43493164 61.25963867 162.98095703 61.74755859 C166.48550831 64.89435139 169.94221185 68.08760597 173.375 71.3125 C174.03113281 71.92609375 174.68726563 72.5396875 175.36328125 73.171875 C180.51502233 78.14596984 184.93138003 83.70872309 189.375 89.3125 C190.17035156 90.3025 190.96570313 91.2925 191.78515625 92.3125 C217.93751165 125.46921049 232.68671111 163.11510053 241.125 204.1875 C241.32383789 205.14841553 241.52267578 206.10933105 241.72753906 207.09936523 C244.93159894 223.37934184 245.75065114 239.3185954 245.6875 255.875 C245.68534485 256.8916272 245.6831897 257.90825439 245.68096924 258.95568848 C245.63000916 273.93559514 245.29820835 288.5730164 242.375 303.3125 C242.17632324 304.33537109 241.97764648 305.35824219 241.77294922 306.41210938 C237.11165658 329.72206415 229.8406514 351.9681366 219.375 373.3125 C218.98586426 374.10994629 218.59672852 374.90739258 218.19580078 375.72900391 C208.08395757 396.22195285 195.23902821 415.10519767 179.66015625 431.83984375 C177.74596117 433.91110099 175.92912389 436.02164701 174.125 438.1875 C141.08598126 476.02375331 92.58796182 498.8171127 44.375 509.3125 C43.48635254 509.5089209 42.59770508 509.7053418 41.68212891 509.90771484 C13.28094409 515.83763255 -20.41687459 514.57747428 -48.625 508.3125 C-49.69234375 508.07644043 -50.7596875 507.84038086 -51.859375 507.59716797 C-92.25876322 498.31703599 -129.78760685 478.86526024 -160.15234375 450.59765625 C-162.22360099 448.68346117 -164.33414701 446.86662389 -166.5 445.0625 C-212.69628806 404.60546565 -239.78609923 339.46124855 -244.625 279.3125 C-244.77192075 275.9136448 -244.81106208 272.51894899 -244.828125 269.1171875 C-244.83522995 268.17526047 -244.8423349 267.23333344 -244.84965515 266.26286316 C-245.08014804 226.72244844 -245.08014804 226.72244844 -241.625 209.3125 C-241.27840332 207.53528564 -241.27840332 207.53528564 -240.92480469 205.72216797 C-229.16228196 146.90215652 -201.39031532 91.96950716 -153.625 54.3125 C-152.87347656 53.68214844 -152.12195313 53.05179688 -151.34765625 52.40234375 C-119.16387811 25.61003614 -78.82951761 8.75647591 -37.625 2.3125 C-35.94591553 2.04651001 -35.94591553 2.04651001 -34.23291016 1.77514648 C-22.81672527 0.14850302 -11.5185687 -0.04470638 0 0 Z " fill="#F5B546" transform="translate(255.625,-0.3125)"/>
<path d="M0 0 C-4.86100454 5.86370084 -10.11006222 11.22459486 -15.51953125 16.58203125 C-16.41870773 17.47742111 -17.31788422 18.37281097 -18.24430847 19.29533386 C-21.09795876 22.13682862 -23.95473473 24.97514562 -26.8125 27.8125 C-30.59283518 31.56601534 -34.36959849 35.32308055 -38.14453125 39.08203125 C-39.01737259 39.94657425 -39.89021393 40.81111725 -40.789505 41.70185852 C-41.99161873 42.89901741 -41.99161873 42.89901741 -43.21801758 44.12036133 C-43.92606033 44.82316727 -44.63410309 45.52597321 -45.36360168 46.25007629 C-47.0759705 47.91505453 -47.0759705 47.91505453 -48 50 C-50.417397 50.61968806 -52.8053327 51.13830485 -55.25 51.625 C-101.75460586 61.8617693 -142.53347619 93.45718022 -168.0625 133.0625 C-179.21034646 150.87898749 -188.22237633 170.71366075 -192.72616577 191.32292175 C-194.20559843 195.593485 -195.90420838 197.42183369 -199.18408203 200.49780273 C-199.97455933 201.2508242 -199.97455933 201.2508242 -200.78100586 202.01905823 C-201.91955078 203.10200985 -203.06342532 204.17938059 -204.21203995 205.25164604 C-206.03452875 206.95861659 -207.83538156 208.6858061 -209.63131714 210.42066956 C-214.73599831 215.3490013 -219.85806812 220.25752575 -225.03857422 225.10620117 C-228.21413073 228.08126079 -231.34814729 231.09518734 -234.46004868 234.1367054 C-235.64556 235.28042462 -236.84561136 236.40928736 -238.06055069 237.52169609 C-245.45847318 244.12405932 -245.45847318 244.12405932 -248.75415039 253.14930725 C-249.07772427 261.34619555 -247.52947209 269.5911586 -245.75 277.5625 C-245.51966064 278.64184814 -245.28932129 279.72119629 -245.05200195 280.83325195 C-244.38920235 283.89407662 -243.7007518 286.94767158 -243 290 C-242.83483887 290.73637695 -242.66967773 291.47275391 -242.49951172 292.23144531 C-233.9148542 329.85943475 -214.32447362 364.21017149 -189 393 C-188.20335937 393.90878906 -187.40671875 394.81757813 -186.5859375 395.75390625 C-179.14791982 404.12487116 -171.47395463 411.74540791 -162.66796875 418.68261719 C-161.496965 419.60749076 -160.3306927 420.53837139 -159.16796875 421.47363281 C-135.32474887 440.62227082 -108.20866829 454.91004888 -79 464 C-77.14761719 464.61488281 -77.14761719 464.61488281 -75.2578125 465.2421875 C-71.84930821 466.03505301 -70.30075874 465.98615756 -67 465 C-65.1413338 463.60869982 -65.1413338 463.60869982 -63.54931641 461.74951172 C-62.91740387 461.06565399 -62.28549133 460.38179626 -61.63442993 459.67721558 C-60.62816055 458.56468918 -60.62816055 458.56468918 -59.6015625 457.4296875 C-58.13860191 455.8771296 -56.67369396 454.32640482 -55.20703125 452.77734375 C-52.91194124 450.33424666 -50.63158615 447.88228336 -48.38330078 445.39599609 C-35.86401177 431.61735405 -35.86401177 431.61735405 -29.11401367 430.16235352 C-25.27869489 430.44204102 -21.74999572 431.16327296 -18 432 C-15.36809682 432.12157356 -12.73235248 432.17634924 -10.09765625 432.16796875 C-8.78361816 432.17538086 -7.46958008 432.18279297 -6.11572266 432.19042969 C-4.76464811 432.19067597 -3.41357282 432.1896783 -2.0625 432.1875 C-1.01192413 432.18659363 -1.01192413 432.18659363 0.05987549 432.18566895 C10.17368366 432.16203519 20.02894697 431.91497045 30 430 C30.9885498 429.82259277 30.9885498 429.82259277 31.99707031 429.64160156 C71.00552743 422.52776228 104.47858346 404.16129119 133 377 C133.70640625 376.34644531 134.4128125 375.69289063 135.140625 375.01953125 C167.01731727 344.63300955 186.9816374 296.72213261 188.23699951 253.07841492 C188.35318683 247.22778566 188.32472036 241.378337 188.23828125 235.52734375 C188.23111084 234.30249268 188.22394043 233.0776416 188.21655273 231.81567383 C188.054656 228.9630425 187.75678803 226.69085835 187.12915039 223.95581055 C186.01678385 218.4215438 185.38380669 213.68093831 188.40914917 208.6625061 C193.23419883 202.45775791 199.03538198 197.23386522 204.8125 191.9375 C206.53848617 190.28474632 208.26053807 188.62787367 209.97851562 186.96679688 C213.11373252 183.96444131 216.25761514 180.97392422 219.45239258 178.03491211 C220.09050369 177.44665146 220.72861481 176.85839081 221.38606262 176.25230408 C223 175 223 175 225 175 C227.53180164 181.95701368 229.00403786 188.76371596 230.1875 196.0625 C230.36474609 197.11888672 230.54199219 198.17527344 230.72460938 199.26367188 C231.15618309 201.84145002 231.58116655 204.42012674 232 207 C232.13767939 202.46067025 232.13767939 202.46067025 231.5 198 C230.75139172 195.0055669 230.94095972 192.07009479 231 189 C231.33 189 231.66 189 232 189 C232.65140456 192.79073089 233.29508257 196.58273657 233.9375 200.375 C234.11990234 201.43589844 234.30230469 202.49679688 234.49023438 203.58984375 C234.66748047 204.64042969 234.84472656 205.69101563 235.02734375 206.7734375 C235.27085571 208.20308838 235.27085571 208.20308838 235.51928711 209.66162109 C236.64969956 217.51193085 237.16340564 225.26734601 237.203125 233.1953125 C237.21018463 234.13746613 237.21724426 235.07961975 237.22451782 236.05032349 C237.45352121 275.58655794 237.45352121 275.58655794 234 293 C233.80132324 294.02287109 233.60264648 295.04574219 233.39794922 296.09960938 C228.73665658 319.40956415 221.4656514 341.6556366 211 363 C210.61086426 363.79744629 210.22172852 364.59489258 209.82080078 365.41650391 C199.70895757 385.90945285 186.86402821 404.79269767 171.28515625 421.52734375 C169.37096117 423.59860099 167.55412389 425.70914701 165.75 427.875 C132.71098126 465.71125331 84.21296182 488.5046127 36 499 C35.11135254 499.1964209 34.22270508 499.3928418 33.30712891 499.59521484 C4.90594409 505.52513255 -28.79187459 504.26497428 -57 498 C-58.06734375 497.76394043 -59.1346875 497.52788086 -60.234375 497.28466797 C-100.63376322 488.00453599 -138.16260685 468.55276024 -168.52734375 440.28515625 C-170.59860099 438.37096117 -172.70914701 436.55412389 -174.875 434.75 C-221.07128806 394.29296565 -248.16109923 329.14874855 -253 269 C-253.14692071 265.60114566 -253.18612185 262.20644906 -253.203125 258.8046875 C-253.21009399 257.86217133 -253.21706299 256.91965515 -253.22424316 255.94857788 C-253.24153941 252.92400599 -253.24796257 249.89961929 -253.25 246.875 C-253.25100708 245.84354858 -253.25201416 244.81209717 -253.25305176 243.74938965 C-253.23878985 222.18957505 -251.21207426 201.95412598 -246 181 C-245.34 181.99 -244.68 182.98 -244 184 C-243.71503662 182.99924438 -243.71503662 182.99924438 -243.42431641 181.97827148 C-231.10654025 139.20232656 -210.65394827 103.19871417 -180 71 C-179.31550781 70.27425781 -178.63101563 69.54851562 -177.92578125 68.80078125 C-172.67476964 63.37935141 -166.91515691 58.67601337 -161 54 C-160.01128906 53.2059375 -159.02257812 52.411875 -158.00390625 51.59375 C-112.85173836 15.96806947 -57.39328401 -1.8967683 0 0 Z " fill="#FCD735" transform="translate(264,10)"/>
<path d="M0 0 C1.64912349 2.44916295 3.15457527 4.88268881 4.625 7.4375 C5.07012939 8.20739258 5.51525879 8.97728516 5.97387695 9.77050781 C14.22660331 24.2551857 20.15983739 39.05532785 25 55 C25.32871094 56.07636719 25.65742188 57.15273437 25.99609375 58.26171875 C26.79468946 61.16231768 27.42656851 64.04628683 28 67 C28.20085205 67.99265869 28.20085205 67.99265869 28.40576172 69.00537109 C37.8680774 117.50905225 27.03505955 169.65635509 -0.40625 210.65234375 C-31.01370459 255.09746453 -75.3739998 282.65462958 -128 293 C-129.26328125 293.24878906 -130.5265625 293.49757813 -131.828125 293.75390625 C-180.0397332 301.34670358 -230.42900778 287.98179989 -270 260 C-269.57133768 252.98190065 -266.66835275 247.28878741 -263.6875 241 C-263.14988037 239.85442627 -262.61226074 238.70885254 -262.05834961 237.52856445 C-253.12000918 218.64252707 -243.28679683 200.58685163 -232 183 C-229.10156266 184.29491773 -227.96716228 185.04179346 -225.9375 187.625 C-214.91207211 201.3071575 -194.63205291 208.67358942 -178 212 C-178 221.24 -178 230.48 -178 240 C-172.06 240 -166.12 240 -160 240 C-160 231.75 -160 223.5 -160 215 C-157.69 215 -155.38 215 -153 215 C-153 223.25 -153 231.5 -153 240 C-147.06 240 -141.12 240 -135 240 C-135 231.09 -135 222.18 -135 213 C-133.02 212.62875 -131.04 212.2575 -129 211.875 C-111.26470842 208.02339627 -95.05341561 201.10268668 -84 186 C-75.54658373 172.5836103 -73.77569574 155.82925446 -76.6875 140.34375 C-81.96589234 121.86937682 -93.51513335 109.16107973 -110.02099609 99.86132812 C-118.16194306 95.51690839 -126.60150062 91.81749972 -135 88 C-135 72.49 -135 56.98 -135 41 C-129.29903537 46.70096463 -129.29903537 46.70096463 -127.6875 50.375 C-127.36136719 51.08398438 -127.03523437 51.79296875 -126.69921875 52.5234375 C-126 55 -126 55 -126 62 C-109.17 62 -92.34 62 -75 62 C-76.92959432 48.98885319 -76.92959432 48.98885319 -79 36 C-15.02072539 0 -15.02072539 0 0 0 Z " fill="#F39E09" transform="translate(415,140)"/>
<path d="M0 0 C1.46049774 0.00273422 1.46049774 0.00273422 2.95050049 0.00552368 C16.9687164 0.04974564 30.60882275 0.45111782 44.375 3.3125 C45.23996094 3.47878906 46.10492188 3.64507812 46.99609375 3.81640625 C89.63891184 12.07577561 129.00699421 31.37326489 161.375 60.3125 C161.90496582 60.78606934 162.43493164 61.25963867 162.98095703 61.74755859 C166.48550831 64.89435139 169.94221185 68.08760597 173.375 71.3125 C174.03113281 71.92609375 174.68726563 72.5396875 175.36328125 73.171875 C180.51502233 78.14596984 184.93138003 83.70872309 189.375 89.3125 C190.17035156 90.3025 190.96570313 91.2925 191.78515625 92.3125 C219.46072374 127.40038271 243.84861497 176.41319993 241.375 222.3125 C241.045 222.3125 240.715 222.3125 240.375 222.3125 C240.11021851 220.89771362 240.11021851 220.89771362 239.84008789 219.4543457 C239.18252036 215.94126677 238.52454764 212.42826382 237.86645508 208.9152832 C237.5821655 207.39740014 237.2979845 205.87949673 237.01391602 204.36157227 C236.60461803 202.17458777 236.19492431 199.98767771 235.78515625 197.80078125 C235.65907486 197.12662674 235.53299347 196.45247223 235.40309143 195.75788879 C234.74939779 192.27138562 234.07967076 188.78907068 233.375 185.3125 C226.1918246 191.45390661 219.17427987 197.78455058 212.32641602 204.296875 C210.98405957 205.557053 209.62510649 206.79978232 208.25024414 208.02441406 C199.57130534 215.34601736 199.57130534 215.34601736 195.7199707 225.52270508 C195.80519436 229.15935408 196.36990749 232.68021063 197.03610229 236.25085449 C197.56106711 239.44441803 197.58105288 242.60846956 197.61328125 245.83984375 C197.63132812 247.05003174 197.649375 248.26021973 197.66796875 249.50708008 C197.87910762 289.96920477 187.20545045 329.20053171 163.375 362.3125 C162.9536377 362.90063477 162.53227539 363.48876953 162.09814453 364.09472656 C156.10194253 372.36906388 149.41599094 379.92779205 142.375 387.3125 C141.28445313 388.48232422 141.28445313 388.48232422 140.171875 389.67578125 C109.76018378 421.38278525 62.74036796 442.24711397 18.82299805 443.40625 C15.47226325 443.43983501 12.12348623 443.45309288 8.77270508 443.44287109 C6.70841982 443.43755389 4.64435644 443.44282399 2.58007812 443.44921875 C1.56733574 443.44755707 1.56733574 443.44755707 0.53413391 443.44586182 C-0.83406929 443.44549445 -2.20230567 443.45446457 -3.57038879 443.47259521 C-7.05313557 443.48432382 -9.92300491 443.24487708 -13.35620117 442.46582031 C-18.33196787 441.44158287 -22.3011402 440.79330616 -26.7492981 443.70123291 C-32.56311197 448.5236392 -37.54273052 454.19005871 -42.5625 459.8125 C-44.85879959 462.34297834 -47.16594675 464.86007461 -49.50282288 467.35314941 C-50.94943548 468.90019974 -52.37223609 470.46995498 -53.76707458 472.06384277 C-58.47994672 477.15509199 -58.47994672 477.15509199 -61.73675537 477.60279846 C-63.83666992 477.37133789 -63.83666992 477.37133789 -67.625 476.3125 C-68.43630371 476.10488037 -69.24760742 475.89726074 -70.08349609 475.68334961 C-70.76492676 475.44624268 -71.44635742 475.20913574 -72.1484375 474.96484375 C-73.32418335 474.55818481 -73.32418335 474.55818481 -74.52368164 474.14331055 C-75.74945923 473.70112183 -75.74945923 473.70112183 -77 473.25 C-77.87068115 472.93909424 -78.7413623 472.62818848 -79.63842773 472.30786133 C-121.79714244 456.97359847 -160.9159327 430.92415328 -188.625 395.3125 C-189.40101563 394.3534375 -190.17703125 393.394375 -190.9765625 392.40625 C-211.50708312 366.59645265 -226.54065627 336.28627285 -234.625 304.3125 C-234.89884521 303.23814697 -234.89884521 303.23814697 -235.17822266 302.14208984 C-236.41823022 297.21773546 -237.55805468 292.27706192 -238.625 287.3125 C-238.85316406 286.26578125 -239.08132812 285.2190625 -239.31640625 284.140625 C-239.88480553 281.19925807 -240.26977755 278.28732092 -240.625 275.3125 C-240.86682007 273.52573853 -240.86682007 273.52573853 -241.11352539 271.70288086 C-241.63606363 264.78774308 -241.71112583 259.6858628 -237.17048645 254.15977478 C-234.5043581 251.28391717 -231.68486113 248.60507605 -228.8125 245.9375 C-227.5983271 244.75323143 -226.38768397 243.56533423 -225.18041992 242.37402344 C-222.01865476 239.27287142 -218.8118914 236.22281366 -215.59265137 233.18151855 C-212.3061501 230.05976033 -209.06540378 226.8912454 -205.8203125 223.7265625 C-199.46538465 217.54237753 -193.06184819 211.41129293 -186.625 205.3125 C-185.22515939 208.11218121 -186.06035754 210.1970074 -186.60498047 213.17602539 C-195.16899871 261.35662532 -183.74334688 312.1097363 -156.3125 352.5 C-139.96762105 375.91146736 -119.30747169 395.03268858 -94.625 409.3125 C-93.89684082 409.73418457 -93.16868164 410.15586914 -92.41845703 410.59033203 C-75.35950775 420.32407628 -56.93247864 427.52752365 -37.625 431.3125 C-36.53276123 431.53462158 -36.53276123 431.53462158 -35.41845703 431.76123047 C11.82467869 440.99516127 63.7237749 430.90434971 103.88671875 404.39453125 C128.65329764 387.51172359 149.53559399 366.48884352 164.375 340.3125 C164.72481934 339.71630859 165.07463867 339.12011719 165.43505859 338.50585938 C175.47502454 321.31977399 182.60005039 301.85425041 186.375 282.3125 C186.52163086 281.59400879 186.66826172 280.87551758 186.81933594 280.13525391 C196.06558479 233.23788204 185.93674832 181.77050081 159.5234375 141.9296875 C131.64304307 101.09848822 90.15396998 69.69597627 40.953125 59.96484375 C36.24413463 59.10647583 31.52495862 58.34365493 26.78662109 57.66625977 C25.0322702 57.40891471 23.28410539 57.10826859 21.54125977 56.78198242 C15.07061932 55.82253747 8.46939075 56.07137613 1.9375 56.0625 C1.16087006 56.06016357 0.38424011 56.05782715 -0.41592407 56.05541992 C-13.67942727 56.04036856 -26.53835001 57.05293453 -39.625 59.3125 C-34.74775563 53.4327495 -29.48613122 48.04369183 -24.0703125 42.66015625 C-23.16876434 41.76002304 -22.26721619 40.85988983 -21.33834839 39.93247986 C-18.96301783 37.56177177 -16.58554595 35.19325485 -14.20697021 32.82580566 C-11.77155283 30.40069272 -9.33903088 27.97267915 -6.90625 25.54492188 C-2.14847231 20.79812872 2.6121538 16.05420719 7.375 11.3125 C-5.85304283 11.1450812 -18.87331973 11.04485514 -32 12.875 C-33.29454102 13.04990967 -34.58908203 13.22481934 -35.92285156 13.4050293 C-48.80636776 15.23198609 -61.23376712 18.38289755 -73.625 22.3125 C-74.46885254 22.57901367 -75.31270508 22.84552734 -76.18212891 23.12011719 C-119.12514218 37.04710867 -159.73227372 64.71513953 -187.625 100.3125 C-188.40359375 101.27414063 -189.1821875 102.23578125 -189.984375 103.2265625 C-209.79542893 128.14811124 -223.71273272 156.51346559 -232.36791992 187.06347656 C-232.76974487 188.46098145 -232.76974487 188.46098145 -233.1796875 189.88671875 C-233.41155762 190.71776123 -233.64342773 191.54880371 -233.88232422 192.4050293 C-234.625 194.3125 -234.625 194.3125 -236.625 195.3125 C-236.96617527 188.08106774 -235.84072316 182.1565683 -233.75 175.25 C-233.28352051 173.68995239 -233.28352051 173.68995239 -232.80761719 172.09838867 C-225.57123418 148.67174369 -215.11498634 125.18674357 -200.625 105.3125 C-200.19106934 104.71163574 -199.75713867 104.11077148 -199.31005859 103.49169922 C-185.99350691 85.11348741 -171.49000263 68.39683144 -153.625 54.3125 C-152.87347656 53.68214844 -152.12195313 53.05179688 -151.34765625 52.40234375 C-119.16387811 25.61003614 -78.82951761 8.75647591 -37.625 2.3125 C-35.94591553 2.04651001 -35.94591553 2.04651001 -34.23291016 1.77514648 C-22.81672527 0.14850302 -11.5185687 -0.04470638 0 0 Z " fill="#FDEB99" transform="translate(255.625,-0.3125)"/>
<path d="M0 0 C5.94 0 11.88 0 18 0 C18 8.58 18 17.16 18 26 C20.31 26 22.62 26 25 26 C25 17.42 25 8.84 25 0 C30.94 0 36.88 0 43 0 C43 8.91 43 17.82 43 27 C47.95 27.99 47.95 27.99 53 29 C70.33132987 34.24281077 86.39947775 43.5672994 95.51074219 59.77905273 C101.27805086 70.58673215 102.19987678 79.19802844 103 92 C86.17 92 69.34 92 52 92 C51.34 88.7 50.68 85.4 50 82 C48.85433618 79.15556185 48.85433618 79.15556185 47.4375 76.9375 C46.78587891 75.83728516 46.78587891 75.83728516 46.12109375 74.71484375 C45.11247641 73.04416867 45.11247641 73.04416867 44 72 C44 87.18 44 102.36 44 118 C50.93 120.97 57.86 123.94 65 127 C68.96524994 129.26585711 72.40201227 131.31171419 76 134 C76.92941406 134.68707031 77.85882813 135.37414062 78.81640625 136.08203125 C91.27679373 145.76214179 100.2161737 158.2103133 103 174 C103.25679772 176.92400748 103.2877719 179.81617095 103.25 182.75 C103.23658569 183.93178833 103.23658569 183.93178833 103.22290039 185.13745117 C102.91427272 200.79111038 98.70033503 213.1158584 87.6328125 224.65234375 C78.57509532 232.72903221 68.58402716 237.53730761 57 241 C55.85402344 241.37253906 54.70804687 241.74507812 53.52734375 242.12890625 C50 243 50 243 43 243 C43 251.91 43 260.82 43 270 C37.06 270 31.12 270 25 270 C25 261.75 25 253.5 25 245 C22.69 245 20.38 245 18 245 C18 253.25 18 261.5 18 270 C12.06 270 6.12 270 0 270 C0 260.76 0 251.52 0 242 C-2.97 241.67 -5.94 241.34 -9 241 C-11.69682531 240.20665949 -14.2110803 239.39365774 -16.8125 238.375 C-17.50045654 238.10921143 -18.18841309 237.84342285 -18.8972168 237.56958008 C-36.66904652 230.47776785 -52.23069815 218.64442915 -59.921875 200.75390625 C-63.02462025 192.9513754 -65.1658823 185.60234859 -65.0625 177.125 C-65.05347656 176.15820312 -65.04445312 175.19140625 -65.03515625 174.1953125 C-65.02355469 173.47085938 -65.01195312 172.74640625 -65 172 C-47.98526262 171.80266413 -31.00151661 172.40793088 -14 173 C-13.78085938 174.05058594 -13.56171875 175.10117187 -13.3359375 176.18359375 C-10.31861481 189.92750168 -10.31861481 189.92750168 -1 200 C-1 183.17 -1 166.34 -1 149 C-8.26 145.7 -15.52 142.4 -23 139 C-27.29575182 136.39890257 -31.09740893 134.036723 -35 131 C-35.80308594 130.37738281 -36.60617188 129.75476563 -37.43359375 129.11328125 C-49.64934629 118.9575207 -57.01858375 105.99331592 -58.59936523 90.26806641 C-59.85550988 74.81180097 -55.80563738 61.90567302 -45.7890625 50.0078125 C-36.0429814 39.13533443 -20.45352984 30.63934023 -6 28 C-4.02 28 -2.04 28 0 28 C0 18.76 0 9.52 0 0 Z " fill="#FDEB99" transform="translate(237,110)"/>
<path d="M0 0 C2.53180164 6.95701368 4.00403786 13.76371596 5.1875 21.0625 C5.36474609 22.11888672 5.54199219 23.17527344 5.72460938 24.26367188 C6.15618309 26.84145002 6.58116655 29.42012674 7 32 C7.66 32 8.32 32 9 32 C11.25869942 53.11096037 10.29530722 74.05920115 7 95 C6.79914795 96.29164063 6.79914795 96.29164063 6.59423828 97.609375 C3.35333439 117.59691319 -2.806288 137.49673137 -11 156 C-11.42418213 156.97743164 -11.42418213 156.97743164 -11.85693359 157.97460938 C-21.53176141 180.1332544 -35.08304955 199.89028648 -51 218 C-52.16015625 219.32837891 -52.16015625 219.32837891 -53.34375 220.68359375 C-61.8802334 230.31719562 -70.84336679 239.08323267 -81 247 C-81.56928223 247.45101074 -82.13856445 247.90202148 -82.72509766 248.36669922 C-132.8799556 287.97817168 -197.47630651 306.17360565 -260.9163208 298.9581604 C-272.10412703 297.60661665 -283.05385834 295.69676019 -294 293 C-288.05430023 285.99964434 -281.91065714 279.22888657 -275.55395508 272.59960938 C-274.22671502 271.200288 -272.91502032 269.78605583 -271.61938477 268.35742188 C-260.86116182 256.52269616 -260.86116182 256.52269616 -254.2434082 255.3137207 C-250.40017188 255.59092204 -246.7784978 256.25632969 -243 257 C-240.36780604 257.11510622 -237.73236484 257.17022961 -235.09765625 257.16796875 C-233.78361816 257.17538086 -232.46958008 257.18279297 -231.11572266 257.19042969 C-229.76464811 257.19067597 -228.41357282 257.1896783 -227.0625 257.1875 C-226.36211609 257.18689575 -225.66173218 257.1862915 -224.94012451 257.18566895 C-214.82631634 257.16203519 -204.97105303 256.91497045 -195 255 C-194.3409668 254.88172852 -193.68193359 254.76345703 -193.00292969 254.64160156 C-153.99447257 247.52776228 -120.52141654 229.16129119 -92 202 C-90.94039063 201.01966797 -90.94039063 201.01966797 -89.859375 200.01953125 C-57.98268273 169.63300955 -38.0183626 121.72213261 -36.76300049 78.07841492 C-36.64681317 72.22778566 -36.67527964 66.378337 -36.76171875 60.52734375 C-36.76888916 59.30249268 -36.77605957 58.0776416 -36.78344727 56.81567383 C-36.945344 53.9630425 -37.24321197 51.69085835 -37.87084961 48.95581055 C-38.98321615 43.4215438 -39.61619331 38.68093831 -36.59085083 33.6625061 C-31.76580117 27.45775791 -25.96461802 22.23386522 -20.1875 16.9375 C-18.46151383 15.28474632 -16.73946193 13.62787367 -15.02148438 11.96679688 C-11.88626748 8.96444131 -8.74238486 5.97392422 -5.54760742 3.03491211 C-4.90949631 2.44665146 -4.27138519 1.85839081 -3.61393738 1.25230408 C-2 0 -2 0 0 0 Z " fill="#FCD735" transform="translate(489,185)"/>
<path d="M0 0 C0.33 0 0.66 0 1 0 C1.18819772 4.14034988 0.88042529 7.71674846 0.01953125 11.76953125 C-1.73062215 22.05675198 -1.439605 32.53238832 -1.4375 42.9375 C-1.4385675 44.05160248 -1.43963501 45.16570496 -1.44073486 46.31356812 C-1.41616676 64.06721058 -0.34364544 80.72003229 4 98 C4.22993652 98.9492334 4.45987305 99.8984668 4.69677734 100.87646484 C14.21341437 139.38079173 32.87258568 174.29735784 59 204 C59.79664062 204.90878906 60.59328125 205.81757813 61.4140625 206.75390625 C68.85208018 215.12487116 76.52604537 222.74540791 85.33203125 229.68261719 C86.503035 230.60749076 87.6693073 231.53837139 88.83203125 232.47363281 C116.33015956 254.55755049 148.4277377 270.6809794 182.87670898 278.49682617 C184.50124154 278.88180508 186.11954569 279.29315485 187.73461914 279.71606445 C247.23641669 295.24224709 312.60525004 281.21675416 365 251 C370.16882368 247.90005653 375.13349457 244.55336698 380 241 C380.54769043 240.60103516 381.09538086 240.20207031 381.65966797 239.79101562 C398.91351098 227.09970794 414.79626036 212.90922963 428 196 C428.77730469 195.03964844 429.55460937 194.07929688 430.35546875 193.08984375 C468.6591337 144.92100595 488.04346448 79.84411676 481.0625 18.5625 C480.66522394 15.25949661 480.2496214 11.99328515 479.4375 8.76171875 C478.71846995 5.86633883 478.94297742 2.96517424 479 0 C479.33 0 479.66 0 480 0 C480.65140456 3.79073089 481.29508257 7.58273657 481.9375 11.375 C482.11990234 12.43589844 482.30230469 13.49679688 482.49023438 14.58984375 C482.66748047 15.64042969 482.84472656 16.69101563 483.02734375 17.7734375 C483.27085571 19.20308838 483.27085571 19.20308838 483.51928711 20.66162109 C484.64969956 28.51193085 485.16340564 36.26734601 485.203125 44.1953125 C485.21018463 45.13746613 485.21724426 46.07961975 485.22451782 47.05032349 C485.45352121 86.58655794 485.45352121 86.58655794 482 104 C481.70198486 105.53430664 481.70198486 105.53430664 481.39794922 107.09960938 C476.73665658 130.40956415 469.4656514 152.6556366 459 174 C458.61086426 174.79744629 458.22172852 175.59489258 457.82080078 176.41650391 C447.70895757 196.90945285 434.86402821 215.79269767 419.28515625 232.52734375 C417.37096117 234.59860099 415.55412389 236.70914701 413.75 238.875 C380.71098126 276.71125331 332.21296182 299.5046127 284 310 C283.11135254 310.1964209 282.22270508 310.3928418 281.30712891 310.59521484 C252.90594409 316.52513255 219.20812541 315.26497428 191 309 C189.93265625 308.76394043 188.8653125 308.52788086 187.765625 308.28466797 C147.36623678 299.00453599 109.83739315 279.55276024 79.47265625 251.28515625 C77.40139901 249.37096117 75.29085299 247.55412389 73.125 245.75 C26.92871194 205.29296565 -0.16109923 140.14874855 -5 80 C-5.14692069 76.60114623 -5.18616162 73.20644911 -5.203125 69.8046875 C-5.21344254 68.39036942 -5.21344254 68.39036942 -5.22396851 66.94747925 C-5.24103997 63.92327969 -5.24742173 60.89924517 -5.25 57.875 C-5.25167175 56.84620728 -5.25334351 55.81741455 -5.25506592 54.75744629 C-5.25689141 36.04911899 -3.78066373 18.33549111 0 0 Z " fill="#E88102" transform="translate(16,199)"/>
<path d="M0 0 C5.94 0 11.88 0 18 0 C18 8.58 18 17.16 18 26 C20.31 26 22.62 26 25 26 C25 17.42 25 8.84 25 0 C30.94 0 36.88 0 43 0 C43 8.91 43 17.82 43 27 C47.95 27.99 47.95 27.99 53 29 C70.33132987 34.24281077 86.39947775 43.5672994 95.51074219 59.77905273 C101.27805086 70.58673215 102.19987678 79.19802844 103 92 C86.17 92 69.34 92 52 92 C51.34 88.7 50.68 85.4 50 82 C48.85433618 79.15556185 48.85433618 79.15556185 47.4375 76.9375 C46.78587891 75.83728516 46.78587891 75.83728516 46.12109375 74.71484375 C45.11247641 73.04416867 45.11247641 73.04416867 44 72 C44.0878627 72.81110733 44.1757254 73.62221466 44.26625061 74.457901 C46.52169591 99.80846298 46.52169591 99.80846298 38.69873047 109.77685547 C33.70474065 115.71426559 27.89767271 120.88993672 22.07104492 125.9888916 C19.30780133 128.43930348 16.63247073 130.98235609 13.94726562 133.51757812 C8.71086065 138.43678999 3.39022908 143.24923801 -2 148 C-3.58050054 147.37407335 -5.16037501 146.74656571 -6.73999023 146.1184082 C-7.61985092 145.76913773 -8.49971161 145.41986725 -9.40623474 145.06001282 C-19.42906135 140.96391174 -28.80410998 136.13725423 -37 129 C-37.598125 128.54367188 -38.19625 128.08734375 -38.8125 127.6171875 C-49.04005344 119.62691137 -56.22626324 107.51829058 -58.10180664 94.72802734 C-59.9919751 79.31276606 -57.96419506 65.97712746 -48.4375 53.25 C-38.37790857 40.55665207 -22.04888678 30.93066628 -6 28 C-4.02 28 -2.04 28 0 28 C0 18.76 0 9.52 0 0 Z " fill="#FDE168" transform="translate(237,110)"/>
<path d="M0 0 C0.76341705 0.00149048 1.52683411 0.00298096 2.31338501 0.0045166 C14.01066089 0.04546585 25.25413227 0.66990859 36.6875 3.3125 C37.35620117 3.45703613 38.02490234 3.60157227 38.71386719 3.75048828 C43.42182686 4.7739085 48.05803093 5.98018187 52.6875 7.3125 C53.37070312 7.50650391 54.05390625 7.70050781 54.7578125 7.90039062 C88.09956456 17.58918389 115.62048557 36.72228961 139.6875 61.3125 C135.70860415 61.3125 134.64386675 59.91804315 131.5625 57.4375 C93.98436438 28.22502193 42.92206022 16.653808 -3.91015625 21.9609375 C-52.71074764 28.61504569 -99.03859966 53.64915331 -129.30712891 92.90112305 C-155.07171434 127.06639522 -169.50807482 166.27531194 -169.625 209.1875 C-169.63055908 210.45819336 -169.63611816 211.72888672 -169.6418457 213.03808594 C-169.55324148 224.72172673 -168.03528276 236.0898119 -165.875 247.5625 C-165.64941406 248.78453125 -165.42382812 250.0065625 -165.19140625 251.265625 C-159.65886334 278.10971419 -147.95820216 302.8530639 -131.46655273 324.63110352 C-130.21723093 326.45130222 -129.25691449 328.31952166 -128.3125 330.3125 C-160.70740054 303.43162508 -181.1183325 263.47797996 -188.3125 222.3125 C-188.48982666 221.30630615 -188.66715332 220.3001123 -188.84985352 219.26342773 C-190.35474859 209.88244631 -190.67193677 200.72274119 -190.625 191.25 C-190.62317719 190.48381348 -190.62135437 189.71762695 -190.61947632 188.92822266 C-190.56994893 176.52540268 -189.93029328 164.47390185 -187.3125 152.3125 C-187.14621094 151.53132812 -186.97992188 150.75015625 -186.80859375 149.9453125 C-175.78898351 100.15299956 -144.97860912 56.81034698 -102.25 29.25 C-71.26955674 9.83958717 -36.4771546 -0.17754566 0 0 Z " fill="#E88102" transform="translate(256.3125,54.6875)"/>
<path d="M0 0 C1.46049774 0.00273422 1.46049774 0.00273422 2.95050049 0.00552368 C16.9687164 0.04974564 30.60882275 0.45111782 44.375 3.3125 C45.23996094 3.47878906 46.10492188 3.64507812 46.99609375 3.81640625 C61.85473568 6.69433546 76.16281913 11.13570703 90.375 16.3125 C91.2817749 16.61712158 92.1885498 16.92174316 93.12280273 17.2355957 C93.86602783 17.59097412 94.60925293 17.94635254 95.375 18.3125 C95.705 19.3025 96.035 20.2925 96.375 21.3125 C91.19430903 26.70198629 85.98933461 32.0667426 80.75228882 37.40152073 C78.32103976 39.8796848 75.89883895 42.36548356 73.49560547 44.87084961 C70.73039119 47.75282495 67.92926259 50.59740823 65.125 53.44140625 C64.26946533 54.34339249 63.41393066 55.24537872 62.5324707 56.17469788 C56.59751646 62.11457071 56.59751646 62.11457071 53.18716431 62.66671753 C51.11572266 62.42553711 51.11572266 62.42553711 47.375 61.3125 C45.92746338 61.08240234 45.92746338 61.08240234 44.45068359 60.84765625 C43.56719238 60.69167969 42.68370117 60.53570312 41.7734375 60.375 C40.78859375 60.20226563 39.80375 60.02953125 38.7890625 59.8515625 C37.78617187 59.67367187 36.78328125 59.49578125 35.75 59.3125 C33.73700752 58.95817224 31.72398749 58.60400092 29.7109375 58.25 C28.82970215 58.09402344 27.9484668 57.93804687 27.04052734 57.77734375 C25.72109131 57.54724609 25.72109131 57.54724609 24.375 57.3125 C23.42826416 57.13235352 22.48152832 56.95220703 21.50610352 56.76660156 C15.04463132 55.82949916 8.45743723 56.07135988 1.9375 56.0625 C1.16087006 56.06016357 0.38424011 56.05782715 -0.41592407 56.05541992 C-13.67942727 56.04036856 -26.53835001 57.05293453 -39.625 59.3125 C-34.74775563 53.4327495 -29.48613122 48.04369183 -24.0703125 42.66015625 C-23.16876434 41.76002304 -22.26721619 40.85988983 -21.33834839 39.93247986 C-18.96301783 37.56177177 -16.58554595 35.19325485 -14.20697021 32.82580566 C-11.77155283 30.40069272 -9.33903088 27.97267915 -6.90625 25.54492188 C-2.14847231 20.79812872 2.6121538 16.05420719 7.375 11.3125 C-5.85304283 11.1450812 -18.87331973 11.04485514 -32 12.875 C-33.29454102 13.04990967 -34.58908203 13.22481934 -35.92285156 13.4050293 C-48.80636776 15.23198609 -61.23376712 18.38289755 -73.625 22.3125 C-74.46885254 22.57901367 -75.31270508 22.84552734 -76.18212891 23.12011719 C-119.12514218 37.04710867 -159.73227372 64.71513953 -187.625 100.3125 C-188.40359375 101.27414063 -189.1821875 102.23578125 -189.984375 103.2265625 C-209.79542893 128.14811124 -223.71273272 156.51346559 -232.36791992 187.06347656 C-232.76974487 188.46098145 -232.76974487 188.46098145 -233.1796875 189.88671875 C-233.41155762 190.71776123 -233.64342773 191.54880371 -233.88232422 192.4050293 C-234.625 194.3125 -234.625 194.3125 -236.625 195.3125 C-236.96617527 188.08106774 -235.84072316 182.1565683 -233.75 175.25 C-233.28352051 173.68995239 -233.28352051 173.68995239 -232.80761719 172.09838867 C-225.57123418 148.67174369 -215.11498634 125.18674357 -200.625 105.3125 C-200.19106934 104.71163574 -199.75713867 104.11077148 -199.31005859 103.49169922 C-185.99350691 85.11348741 -171.49000263 68.39683144 -153.625 54.3125 C-152.87347656 53.68214844 -152.12195313 53.05179688 -151.34765625 52.40234375 C-119.16387811 25.61003614 -78.82951761 8.75647591 -37.625 2.3125 C-35.94591553 2.04651001 -35.94591553 2.04651001 -34.23291016 1.77514648 C-22.81672527 0.14850302 -11.5185687 -0.04470638 0 0 Z " fill="#FDEB99" transform="translate(255.625,-0.3125)"/>
<path d="M0 0 C8.21995732 8.82884305 11.40170828 20.96647369 11.25 32.75 C11.23658569 33.93178833 11.23658569 33.93178833 11.22290039 35.13745117 C10.91427272 50.79111038 6.70033503 63.1158584 -4.3671875 74.65234375 C-13.42490468 82.72903221 -23.41597284 87.53730761 -35 91 C-36.14597656 91.37253906 -37.29195313 91.74507813 -38.47265625 92.12890625 C-42 93 -42 93 -49 93 C-49 101.91 -49 110.82 -49 120 C-54.94 120 -60.88 120 -67 120 C-67 111.75 -67 103.5 -67 95 C-69.31 95 -71.62 95 -74 95 C-74 103.25 -74 111.5 -74 120 C-79.94 120 -85.88 120 -92 120 C-95.08139957 98.30142808 -95.08139957 98.30142808 -90.28448486 90.04852295 C-85.54896776 84.32478555 -79.83343868 79.64255052 -74.10125732 74.949646 C-56.08096824 60.75873577 -56.08096824 60.75873577 -46.98828125 40.74609375 C-46.26961476 32.76883062 -47.17924765 24.77648433 -49 17 C-43.12495017 22.55747957 -40.69440561 26.13972004 -40.3125 34.3125 C-40.24675781 35.56675781 -40.18101562 36.82101562 -40.11328125 38.11328125 C-40.05720703 39.54220703 -40.05720703 39.54220703 -40 41 C-34.46062367 35.48591448 -28.92512096 29.96796277 -23.39233398 24.44726562 C-21.50846572 22.56843574 -19.62370222 20.69050305 -17.73803711 18.81347656 C-15.03265025 16.12017685 -12.33046659 13.42369976 -9.62890625 10.7265625 C-8.78099014 9.88380768 -7.93307404 9.04105286 -7.0594635 8.17276001 C-6.27872971 7.39210175 -5.49799591 6.61144348 -4.69360352 5.80712891 C-3.65768822 4.77454453 -3.65768822 4.77454453 -2.60084534 3.72109985 C-0.92137922 2.07750919 -0.92137922 2.07750919 0 0 Z " fill="#FCD735" transform="translate(329,260)"/>
<path d="M0 0 C6.24646393 1.89762507 11.98650701 4.2519805 17.75 7.3125 C18.55928955 7.74199951 19.3685791 8.17149902 20.20239258 8.61401367 C41.61269971 20.24412692 60.43487037 35.22989746 78 52 C78.67417969 52.63292969 79.34835937 53.26585937 80.04296875 53.91796875 C85.18006525 58.86697934 89.57396286 64.41839652 94 70 C94.79535156 70.99 95.59070313 71.98 96.41015625 73 C101.25818736 79.14647368 105.7641128 85.45616567 110.0625 92 C110.53993652 92.71816895 111.01737305 93.43633789 111.50927734 94.17626953 C113.81516868 97.74909716 115.58509014 100.6646153 116 105 C114.02 106.485 114.02 106.485 112 108 C111.09121094 106.60201172 111.09121094 106.60201172 110.1640625 105.17578125 C93.23381361 78.70446201 93.23381361 78.70446201 71 57 C67.79311983 57.40299796 66.15496075 58.47464153 63.91552734 60.74389648 C63.34168304 61.31796738 62.76783875 61.89203827 62.17660522 62.48350525 C61.56918488 63.10640945 60.96176453 63.72931366 60.3359375 64.37109375 C59.70265533 65.00862076 59.06937317 65.64614777 58.41690063 66.30299377 C56.39578145 68.34089304 54.38533481 70.38896691 52.375 72.4375 C51.01371345 73.81383643 49.65174197 75.18949578 48.2890625 76.56445312 C45.29118313 79.59182779 42.29999907 82.62564163 39.31454468 85.66526794 C38.21480328 86.781898 37.1082179 87.8917821 36 89 C34.6696875 87.576875 34.6696875 87.576875 33.3125 86.125 C12.81645797 65.79194837 -14.63184684 52.22047091 -42 44 C-38.27672318 40.26839059 -34.5360089 36.5546678 -30.7922821 32.84358215 C-27.46285848 29.54081908 -24.13863015 26.23284845 -20.81469727 22.92456055 C-19.05604425 21.17604009 -17.29561145 19.429308 -15.53344727 17.68432617 C-12.99028769 15.16529031 -10.45352237 12.6399698 -7.91796875 10.11328125 C-7.12432419 9.32995926 -6.33067963 8.54663727 -5.51298523 7.73957825 C-4.78835587 7.01509995 -4.0637265 6.29062164 -3.31713867 5.54418945 C-2.67491867 4.90641068 -2.03269867 4.2686319 -1.37101746 3.61152649 C0.21599436 2.09875224 0.21599436 2.09875224 0 0 Z " fill="#FDEB98" transform="translate(351,19)"/>
<path d="M0 0 C1.39984061 2.79968121 0.56464246 4.8845074 0.02001953 7.86352539 C-4.58337854 33.76193831 -3.8156821 62.29308641 3.44921875 87.58984375 C4.05741345 90.25123475 4.2641992 92.2759089 4 95 C2.55737305 97.04389954 2.55737305 97.04389954 0.51171875 99.0559082 C-0.24906982 99.81631912 -1.0098584 100.57673004 -1.79370117 101.36018372 C-3.04050659 102.5682795 -3.04050659 102.5682795 -4.3125 103.80078125 C-5.15594971 104.63715622 -5.99939941 105.47353119 -6.8684082 106.33525085 C-9.56744479 109.0062791 -12.28333772 111.65941203 -15 114.3125 C-16.83186547 116.11929136 -18.66260939 117.92722059 -20.4921875 119.73632812 C-24.98185674 124.17084205 -29.48549285 128.59078233 -34 133 C-37 132 -37 132 -37.99560547 130.15258789 C-38.28322754 129.35071045 -38.57084961 128.54883301 -38.8671875 127.72265625 C-39.35590332 126.3778418 -39.35590332 126.3778418 -39.85449219 125.00585938 C-40.19125977 124.03455078 -40.52802734 123.06324219 -40.875 122.0625 C-41.22723633 121.06412109 -41.57947266 120.06574219 -41.94238281 119.03710938 C-46.30720208 106.48275294 -49.77750297 93.92503819 -52.3125 80.875 C-52.48426758 80.029375 -52.65603516 79.18375 -52.83300781 78.3125 C-53.33652335 75.54579252 -53.6756618 72.79379311 -54 70 C-54.15957687 68.81511993 -54.31915375 67.63023987 -54.48356628 66.40945435 C-55.00868755 59.48962508 -55.0908224 54.37704029 -50.54559803 48.84684563 C-47.87905756 45.97151863 -45.05978987 43.29250987 -42.1875 40.625 C-40.9733271 39.44073143 -39.76268397 38.25283423 -38.55541992 37.06152344 C-35.39365476 33.96037142 -32.1868914 30.91031366 -28.96765137 27.86901855 C-25.6811501 24.74726033 -22.44040378 21.5787454 -19.1953125 18.4140625 C-12.84038465 12.22987753 -6.43684819 6.09879293 0 0 Z " fill="#FDEB99" transform="translate(69,205)"/>
<path d="M0 0 C0.71019287 0.31050293 1.42038574 0.62100586 2.15209961 0.94091797 C3.31999023 1.40884766 3.31999023 1.40884766 4.51147461 1.88623047 C10.67948313 4.92992095 15.95474149 8.43898101 21.15209961 12.94091797 C21.90491211 13.57513672 22.65772461 14.20935547 23.43334961 14.86279297 C36.87926873 27.11147271 40.03544027 42.07436856 41.15209961 59.94091797 C24.32209961 59.94091797 7.49209961 59.94091797 -9.84790039 59.94091797 C-10.50790039 56.64091797 -11.16790039 53.34091797 -11.84790039 49.94091797 C-12.99356422 47.09647982 -12.99356422 47.09647982 -14.41040039 44.87841797 C-15.06202148 43.77820313 -15.06202148 43.77820313 -15.72680664 42.65576172 C-16.73542398 40.98508663 -16.73542398 40.98508663 -17.84790039 39.94091797 C-17.72286133 40.60994141 -17.59782227 41.27896484 -17.46899414 41.96826172 C-17.15445502 46.95404134 -17.5186566 50.19163161 -20.54760742 54.17773438 C-25.28194144 59.42317989 -30.39762288 64.43753791 -35.84790039 68.94091797 C-36.17790039 68.94091797 -36.50790039 68.94091797 -36.84790039 68.94091797 C-39.2354185 57.11135989 -41.77271064 42.36865683 -35.37908936 31.42736816 C-30.94855467 25.23790198 -25.67211137 19.91462534 -20.16040039 14.69091797 C-19.36853333 13.93546692 -18.57666626 13.18001587 -17.76080322 12.40167236 C-15.46296267 10.24624947 -13.13457104 8.13634592 -10.77368164 6.05029297 C-10.05560837 5.4124588 -9.3375351 4.77462463 -8.59770203 4.11746216 C-3.58735915 -0.07442271 -3.58735915 -0.07442271 0 0 Z " fill="#FDEB99" transform="translate(298.847900390625,142.05908203125)"/>
<path d="M0 0 C8.4274814 46.42639307 -2.56115344 97.44492822 -29.31640625 136.2421875 C-30.20647653 137.49796545 -31.10087815 138.75068689 -32 140 C-32.63204346 140.88220215 -32.63204346 140.88220215 -33.27685547 141.78222656 C-39.27305747 150.05656388 -45.95900906 157.61529205 -53 165 C-53.72703125 165.77988281 -54.4540625 166.55976563 -55.203125 167.36328125 C-85.70661256 199.16599143 -132.57920365 219.7554322 -176.56811523 221.10986328 C-179.93191963 221.15977198 -183.29319636 221.18569628 -186.65722656 221.18530273 C-188.7326331 221.18748177 -190.80749988 221.2056848 -192.8828125 221.22460938 C-201.75811468 221.26054337 -210.24350684 220.51462274 -219 219 C-217.54414431 215.62695252 -216.87534107 214.15700697 -214 212 C-209.43256148 211.25513715 -204.95275475 211.42626064 -200.35025024 211.6449585 C-196.49041368 211.82218197 -192.62879475 211.87166889 -188.765625 211.9296875 C-188.00256546 211.94335358 -187.23950592 211.95701965 -186.45332336 211.97109985 C-139.34442205 212.63574087 -94.11603472 188.94015143 -60.7746582 157.10864258 C-48.9644137 145.57135461 -39.13472177 132.3494471 -31 118 C-30.65018066 117.40380859 -30.30036133 116.80761719 -29.93994141 116.19335938 C-19.8961319 99.00069472 -12.7919476 79.54421111 -9 60 C-8.85336914 59.29214355 -8.70673828 58.58428711 -8.55566406 57.85498047 C-6.69456319 48.5714891 -5.89690251 39.47430108 -5.9921875 30.015625 C-5.99943848 29.22916092 -6.00668945 28.44269684 -6.01416016 27.63240051 C-6.06025541 23.66282561 -6.14747445 19.69860764 -6.28613281 15.73120117 C-6.31868319 14.25700581 -6.35092343 12.78280356 -6.3828125 11.30859375 C-6.42809082 9.99689209 -6.47336914 8.68519043 -6.52001953 7.33374023 C-6 4 -6 4 -3.53857422 1.54321289 C-1 0 -1 0 0 0 Z " fill="#FDEA96" transform="translate(451,222)"/>
<path d="M0 0 C2.04687058 0.01005913 4.09374599 0.01917975 6.140625 0.02734375 C11.09387219 0.04910355 16.04688076 0.08346843 21 0.125 C21 0.455 21 0.785 21 1.125 C20.175 1.310625 19.35 1.49625 18.5 1.6875 C15.04545707 3.10633013 13.96568222 4.07643246 11.47265625 6.671875 C6.51315557 11.08845162 2.35338163 10.97802471 -4.0625 10.8125 C-28.35237484 11.04142694 -51.85346675 14.78459451 -75 22.125 C-75.84385254 22.39151367 -76.68770508 22.65802734 -77.55712891 22.93261719 C-120.50014218 36.85960867 -161.10727372 64.52763953 -189 100.125 C-189.77859375 101.08664063 -190.5571875 102.04828125 -191.359375 103.0390625 C-211.17042893 127.96061124 -225.08773272 156.32596559 -233.74291992 186.87597656 C-234.14474487 188.27348145 -234.14474487 188.27348145 -234.5546875 189.69921875 C-234.78655762 190.53026123 -235.01842773 191.36130371 -235.25732422 192.2175293 C-236 194.125 -236 194.125 -238 195.125 C-238.34117527 187.89356774 -237.21572316 181.9690683 -235.125 175.0625 C-234.65852051 173.50245239 -234.65852051 173.50245239 -234.18261719 171.91088867 C-226.94623418 148.48424369 -216.48998634 124.99924357 -202 105.125 C-201.56606934 104.52413574 -201.13213867 103.92327148 -200.68505859 103.30419922 C-187.36850691 84.92598741 -172.86500263 68.20933144 -155 54.125 C-154.24847656 53.49464844 -153.49695313 52.86429688 -152.72265625 52.21484375 C-120.52763284 25.41317469 -80.21031722 8.59371718 -39 2.125 C-37.8965625 1.94549805 -36.793125 1.76599609 -35.65625 1.58105469 C-23.76553542 -0.14590104 -11.99516134 -0.10367638 0 0 Z " fill="#FDEA94" transform="translate(257,-0.125)"/>
<path d="M0 0 C1.40424957 2.69872685 2.55100119 5.37695719 3.55859375 8.24609375 C8.32225833 21.46320522 14.21475291 33.70722168 21 46 C16.92935998 50.8887452 12.65719636 55.47950092 8.140625 59.95703125 C7.51017273 60.58606857 6.87972046 61.2151059 6.23016357 61.86320496 C4.23913737 63.84869041 2.24464486 65.83065061 0.25 67.8125 C-1.10309726 69.16057379 -2.45596394 70.50887906 -3.80859375 71.85742188 C-6.27299453 74.31368711 -8.7386315 76.76869473 -11.20605469 79.22192383 C-12.80593084 80.81271295 -14.40466089 82.40466089 -16 84 C-21.9966828 74.77821049 -27.90668124 65.53662676 -33.0625 55.8125 C-33.41948975 55.14355713 -33.77647949 54.47461426 -34.14428711 53.78540039 C-36.47617096 49.30152568 -38.30050142 44.75965489 -40 40 C-39.50982895 39.58047562 -39.0196579 39.16095123 -38.51463318 38.72871399 C-33.64907955 34.52394908 -29.01160516 30.15891737 -24.47265625 25.60546875 C-23.79827011 24.93203934 -23.12388397 24.25860992 -22.42906189 23.56477356 C-21.02040932 22.1567956 -19.61299501 20.74757776 -18.20678711 19.3371582 C-16.04720227 17.17216396 -13.88226118 15.01262744 -11.71679688 12.85351562 C-10.3434288 11.47948763 -8.97037049 10.10514994 -7.59765625 8.73046875 C-6.94982681 8.08466354 -6.30199738 7.43885834 -5.63453674 6.77348328 C-4.74241737 5.87663567 -4.74241737 5.87663567 -3.83227539 4.96166992 C-3.30791397 4.43651291 -2.78355255 3.9113559 -2.24330139 3.37028503 C-0.88748638 1.99982008 -0.88748638 1.99982008 0 0 Z " fill="#FCD735" transform="translate(73,298)"/>
<path d="M0 0 C9.46731743 3.04478597 9.46731743 3.04478597 13.796875 5.19921875 C14.60479492 5.59995605 15.41271484 6.00069336 16.24511719 6.41357422 C17.07172852 6.83396973 17.89833984 7.25436523 18.75 7.6875 C19.6152832 8.12594238 20.48056641 8.56438477 21.37207031 9.01611328 C26.56815974 11.67980907 31.72195029 14.40472619 36.75 17.375 C37.77609375 17.98085938 38.8021875 18.58671875 39.859375 19.2109375 C40.56578125 19.80132812 41.2721875 20.39171875 42 21 C42 25 42 25 40.82312012 26.65789795 C40.27240845 27.19972717 39.72169678 27.7415564 39.15429688 28.29980469 C38.53365356 28.92014587 37.91301025 29.54048706 37.27355957 30.17962646 C36.59547241 30.83706848 35.91738525 31.4945105 35.21875 32.171875 C34.53067261 32.8542926 33.84259521 33.53671021 33.13366699 34.23980713 C30.93164254 36.41942309 28.71612543 38.58473174 26.5 40.75 C25.00560138 42.22433958 23.51209998 43.69958918 22.01953125 45.17578125 C18.35668561 48.79449998 14.68167744 52.40044646 11 56 C9.9385376 55.46528076 8.8770752 54.93056152 7.78344727 54.37963867 C6.3569714 53.66317342 4.93045558 52.94678771 3.50390625 52.23046875 C2.80833618 51.87980347 2.11276611 51.52913818 1.39611816 51.16784668 C-10.75099741 45.07495195 -23.0243283 40.0455758 -36 36 C-24 24 -12 12 0 0 Z " fill="#FCD735" transform="translate(345,27)"/>
<path d="M0 0 C3.44313596 1.58711394 4.73089038 2.69934059 6.47265625 6.10546875 C6.89740234 6.92466797 7.32214844 7.74386719 7.75976562 8.58789062 C8.18966797 9.44576172 8.61957031 10.30363281 9.0625 11.1875 C9.49626953 12.02603516 9.93003906 12.86457031 10.37695312 13.72851562 C11.61337244 16.13925101 12.81298094 18.56462655 14 21 C14.33370605 21.6595166 14.66741211 22.3190332 15.01123047 22.99853516 C16.83692289 26.82512842 17.22369746 28.96122479 16 33 C14.64039612 34.8540802 14.64039612 34.8540802 12.88891602 36.59692383 C12.23476212 37.25723099 11.58060822 37.91753815 10.90663147 38.59785461 C10.19623215 39.2938829 9.48583282 39.98991119 8.75390625 40.70703125 C8.02759506 41.43242599 7.30128387 42.15782074 6.55296326 42.90519714 C5.0184656 44.43366008 3.47911734 45.95726653 1.93530273 47.47631836 C-0.43564217 49.81067085 -2.79011129 52.16071366 -5.14257812 54.51367188 C-6.63447456 55.99574063 -8.12728221 57.4768928 -9.62109375 58.95703125 C-10.32946884 59.66318069 -11.03784393 60.36933014 -11.76768494 61.09687805 C-12.424991 61.74142441 -13.08229706 62.38597076 -13.75952148 63.05004883 C-14.62769753 63.90678947 -14.62769753 63.90678947 -15.51341248 64.78083801 C-17 66 -17 66 -19 66 C-19.35191406 65.01902344 -19.70382812 64.03804688 -20.06640625 63.02734375 C-22.95717207 55.09284025 -26.03428221 47.39118792 -29.90258789 39.87475586 C-32.0620214 35.51671409 -32.0620214 35.51671409 -31.7613678 33.01190186 C-30.87124757 30.65977384 -29.82638395 29.46412018 -28.04077148 27.70019531 C-27.4202037 27.07985413 -26.79963593 26.45951294 -26.16026306 25.82037354 C-25.48733719 25.16293152 -24.81441132 24.5054895 -24.12109375 23.828125 C-23.4344313 23.1457074 -22.74776886 22.46328979 -22.04029846 21.76019287 C-19.84630585 19.58298804 -17.64211084 17.41644719 -15.4375 15.25 C-13.94788366 13.77543029 -12.4589428 12.30017787 -10.97070312 10.82421875 C-7.32159192 7.20817824 -3.66329621 3.60166712 0 0 Z " fill="#FDD836" transform="translate(462,128)"/>
<path d="M0 0 C0.79720459 0.31565918 1.59440918 0.63131836 2.41577148 0.95654297 C3.16181641 1.25093262 3.90786133 1.54532227 4.67651367 1.84863281 C5.80814941 2.3777124 5.80814941 2.3777124 6.96264648 2.91748047 C8.23108398 3.50142578 8.23108398 3.50142578 9.52514648 4.09716797 C10.83225586 4.70818359 10.83225586 4.70818359 12.16577148 5.33154297 C18.48603091 8.2822665 24.74213207 10.90825838 31.41577148 12.95654297 C30.07004262 15.95598201 28.58040047 18.03730476 26.2512207 20.34814453 C25.6107077 20.98850647 24.9701947 21.62886841 24.31027222 22.28863525 C23.62063385 22.96795105 22.93099548 23.64726685 22.22045898 24.34716797 C21.51301544 25.05178162 20.8055719 25.75639526 20.07669067 26.48236084 C17.81937287 28.72849687 15.55519515 30.96757306 13.29077148 33.20654297 C11.75776195 34.72952014 10.22520433 36.25295236 8.69311523 37.77685547 C4.93922576 41.50871112 1.17968234 45.23479648 -2.58422852 48.95654297 C-7.66971089 47.33055625 -12.59903221 45.6362745 -17.42407227 43.32763672 C-18.42374023 42.85003906 -19.4234082 42.37244141 -20.45336914 41.88037109 C-21.46592773 41.38988281 -22.47848633 40.89939453 -23.52172852 40.39404297 C-25.08117187 39.65250977 -25.08117187 39.65250977 -26.67211914 38.89599609 C-34.32371395 35.21705754 -34.32371395 35.21705754 -36.58422852 32.95654297 C-36.15972412 32.60785156 -35.73521973 32.25916016 -35.29785156 31.89990234 C-30.70743024 28.0135552 -26.4707303 23.86656514 -22.29125977 19.55029297 C-21.73324677 18.97730469 -21.17523376 18.40431641 -20.60031128 17.81396484 C-18.2684097 15.41903218 -15.93771074 13.02362095 -13.63037109 10.60498047 C-11.92677711 8.82294865 -10.20490053 7.06045654 -8.47875977 5.30029297 C-7.96094437 4.7483728 -7.44312897 4.19645264 -6.90962219 3.62780762 C-3.25430696 -0.05472524 -3.25430696 -0.05472524 0 0 Z " fill="#FCD735" transform="translate(172.584228515625,420.04345703125)"/>
<path d="M0 0 C0.71164307 0.31195313 1.42328613 0.62390625 2.15649414 0.9453125 C2.95829102 1.28046875 3.76008789 1.615625 4.58618164 1.9609375 C9.79898573 4.59232103 14.50768214 7.40817294 19.15649414 10.9453125 C18.5744854 14.2101869 17.63781274 15.83405229 15.2890625 18.15332031 C14.68851547 18.75364075 14.08796844 19.35396118 13.46922302 19.97247314 C12.81817093 20.60804138 12.16711884 21.24360962 11.49633789 21.8984375 C10.83187149 22.55865906 10.16740509 23.21888062 9.48280334 23.89910889 C7.36013851 26.0049889 5.22727809 28.10019578 3.09399414 30.1953125 C1.6525548 31.62170482 0.21179105 33.0487802 -1.22827148 34.4765625 C-4.75889418 37.97411844 -8.29869639 41.46213815 -11.84350586 44.9453125 C-15.24265561 43.81226258 -15.89605037 42.82012775 -17.84350586 39.9453125 C-17.7184668 40.61433594 -17.59342773 41.28335938 -17.46459961 41.97265625 C-17.15006049 46.95843587 -17.51426207 50.19602614 -20.54321289 54.18212891 C-25.27754691 59.42757442 -30.39322835 64.44193244 -35.84350586 68.9453125 C-36.17350586 68.9453125 -36.50350586 68.9453125 -36.84350586 68.9453125 C-39.23102397 57.11575443 -41.76831611 42.37305136 -35.37469482 31.4317627 C-30.94416014 25.24229652 -25.66771684 19.91901987 -20.15600586 14.6953125 C-19.36413879 13.93986145 -18.57227173 13.1844104 -17.75640869 12.40606689 C-15.45856813 10.250644 -13.13017651 8.14074045 -10.76928711 6.0546875 C-10.05121384 5.41685333 -9.33314056 4.77901917 -8.5933075 4.12185669 C-3.58427216 -0.06893423 -3.58427216 -0.06893423 0 0 Z " fill="#FDF0B1" transform="translate(298.843505859375,142.0546875)"/>
<path d="M0 0 C2.30786731 11.44680669 4.86337779 25.89518345 -1.46026611 36.43353271 C-10.11076763 48.18276566 -21.78615721 57.7834648 -33 67 C-36.42512255 65.92505607 -39.54975802 64.88159443 -42.578125 62.94140625 C-43.18140625 62.55533203 -43.7846875 62.16925781 -44.40625 61.77148438 C-45.31890625 61.17303711 -45.31890625 61.17303711 -46.25 60.5625 C-46.87390625 60.16740234 -47.4978125 59.77230469 -48.140625 59.36523438 C-51.12933342 57.4296592 -53.00017969 55.99973047 -55 53 C-44.44 42.44 -33.88 31.88 -23 21 C-21.68 21.66 -20.36 22.32 -19 23 C-18.99871094 22.01902344 -18.99742187 21.03804687 -18.99609375 20.02734375 C-18.19686047 14.45237556 -13.97888633 11.26224958 -10.0625 7.5625 C-9.32064453 6.83095703 -8.57878906 6.09941406 -7.81445312 5.34570312 C-2.30902778 0 -2.30902778 0 0 0 Z " fill="#FDF0B0" transform="translate(255,185)"/>
<path d="M0 0 C1.83335334 2.75003001 3.21098001 5.51172076 4.61230469 8.49584961 C12.6476664 25.38986829 25.09179555 35.07645283 41.75 42.98046875 C47.20574786 45.57295188 52.59732263 48.29866131 58 51 C58 68.16 58 85.32 58 103 C50.99391796 98.32927864 46.80761795 93.38077414 45 85 C44.85223969 81.32637295 44.88232563 77.67405528 45 74 C41.7 74 38.4 74 35 74 C37.07213618 69.85572764 39.43079241 67.16669393 42.5390625 63.8046875 C44.20973274 62.12790227 44.20973274 62.12790227 44 60 C43.26136719 59.6596875 42.52273437 59.319375 41.76171875 58.96875 C34.19662169 55.35442155 27.59627771 51.16184906 21 46 C20.02933594 45.27876953 20.02933594 45.27876953 19.0390625 44.54296875 C9.62305395 37.15076295 1.7200041 24.95044516 0 13 C-0.06652855 10.73004581 -0.08543751 8.45831305 -0.0625 6.1875 C-0.05347656 5.02605469 -0.04445312 3.86460937 -0.03515625 2.66796875 C-0.02355469 1.78753906 -0.01195312 0.90710938 0 0 Z " fill="#E48E43" transform="translate(179,208)"/>
<path d="M0 0 C2.31 0 4.62 0 7 0 C7.33 11.88 7.66 23.76 8 36 C13.22331627 30.73708462 13.22331627 30.73708462 18.44116211 25.46875 C19.08835205 24.8190625 19.73554199 24.169375 20.40234375 23.5 C21.06741943 22.8296875 21.73249512 22.159375 22.41772461 21.46875 C24 20 24 20 25 20 C26.54953047 26.51041922 27.15435758 32.55338416 25 39 C19.54326217 47.51839361 11.53870566 54.34872129 4.13970947 61.16491699 C1.39052438 63.71772441 -1.3039388 66.32700718 -4.00390625 68.93164062 C-9.2847858 74.01033324 -14.62178213 79.0242838 -20 84 C-21.60785777 83.40572612 -23.21117709 82.79916412 -24.8125 82.1875 C-25.70582031 81.85105469 -26.59914062 81.51460938 -27.51953125 81.16796875 C-29.91924072 80.03802681 -31.28423353 78.98937707 -33 77 C-31.55379272 75.89942261 -31.55379272 75.89942261 -30.07836914 74.77661133 C-9.28358796 58.91887364 -9.28358796 58.91887364 1.06532288 35.97843933 C2.14894291 23.9922068 1.37019157 11.93288905 0 0 Z " fill="#FDE168" transform="translate(255,174)"/>
<path d="M0 0 C0.33 0 0.66 0 1 0 C2.08052183 13.92672582 -0.82843438 26.52345349 -9.2578125 37.98828125 C-20.60973539 51.09644333 -36.5788241 60.02016147 -53.9375 61.8125 C-55.278125 61.874375 -56.61875 61.93625 -58 62 C-58 57.38 -58 52.76 -58 48 C-53.76990357 46.56478871 -49.55840947 45.15929549 -45.26171875 43.93359375 C-30.31322363 39.64521016 -16.17079769 32.69304732 -7.625 19.0625 C-4.30667825 13.03687892 -1.54876965 6.71644659 0 0 Z " fill="#DB6905" transform="translate(339,306)"/>
<path d="M0 0 C22.04717019 0.12708082 44.69229776 7.17490768 65.25 14.625 C65.9085498 14.85880371 66.56709961 15.09260742 67.24560547 15.33349609 C69.03125 16.015625 69.03125 16.015625 71.75 17.375 C72.245 18.86 72.245 18.86 72.75 20.375 C70.77 22.355 68.79 24.335 66.75 26.375 C61.25059413 24.97089637 55.86374863 23.47582204 50.5625 21.4375 C29.91323764 13.84203706 7.47664637 11.90367553 -14.25 9.375 C-13.29270084 8.24911986 -12.33412105 7.1243285 -11.375 6 C-10.84132813 5.37351562 -10.30765625 4.74703125 -9.7578125 4.1015625 C-6.4449103 0.30803201 -5.07004564 0.05583751 0 0 Z " fill="#FEF4C7" transform="translate(279.25,0.625)"/>
<path d="M0 0 C2.92155019 1.08205563 4.10663731 2.13572021 6.0625 4.625 C17.08792789 18.3071575 37.36794709 25.67358942 54 29 C54 33.95 54 38.9 54 44 C33.38918454 41.65193242 15.60747476 31.65238284 2 16 C-3.03584607 9.61307327 -3.03584607 9.61307327 -2.9375 5.1875 C-2 3 -2 3 0 0 Z " fill="#DB6805" transform="translate(183,323)"/>
<path d="M0 0 C-6.89014453 6.91326494 -13.78295041 13.82386395 -20.67921352 20.7310257 C-23.88097481 23.93801647 -27.08179482 27.14593532 -30.28051758 30.35595703 C-33.36466421 33.4509302 -36.45121257 36.54348891 -39.53947639 39.63435364 C-40.72016209 40.81689401 -41.89996406 42.00031738 -43.07888603 43.18461609 C-44.72404079 44.83697817 -46.3722457 46.48623677 -48.02124023 48.13476562 C-48.5132341 48.63035477 -49.00522797 49.12594391 -49.51213074 49.6365509 C-52.88594784 53 -52.88594784 53 -54 53 C-55.2230568 40.95968526 -50.47332684 30.86639602 -43.13598633 21.60766602 C-34.80597787 11.71342179 -14.01859525 -4.34731783 0 0 Z " fill="#FDEFB1" transform="translate(233,140)"/>
<path d="M0 0 C0.9416954 0.00848969 1.88339081 0.01697937 2.85362244 0.02572632 C5.82941423 0.0590234 8.80238634 0.13425464 11.77734375 0.2109375 C13.80790327 0.24106786 15.83850573 0.26843825 17.86914062 0.29296875 C22.81877677 0.35873659 27.76633409 0.4620898 32.71484375 0.5859375 C32.71484375 5.5359375 32.71484375 10.4859375 32.71484375 15.5859375 C15.88484375 15.5859375 -0.94515625 15.5859375 -18.28515625 15.5859375 C-18.61515625 12.6159375 -18.94515625 9.6459375 -19.28515625 6.5859375 C-12.84570545 1.40965277 -8.209476 -0.28433367 0 0 Z " fill="#DB6804" transform="translate(307.28515625,201.4140625)"/>
<path d="M0 0 C4.13621084 3.3810038 7.81316569 6.66590534 11 11 C10.59072266 11.33781494 10.18144531 11.67562988 9.75976562 12.02368164 C2.25745201 18.39452146 -4.56905108 25.461122 -11.5 32.4375 C-15.955 36.913125 -20.41 41.38875 -25 46 C-1.735 46.495 -1.735 46.495 22 47 C22 47.33 22 47.66 22 48 C5.17 48 -11.66 48 -29 48 C-29.66 44.7 -30.32 41.4 -31 38 C-32.00771789 35.05215472 -32.00771789 35.05215472 -33 33 C-32.56679443 32.63753174 -32.13358887 32.27506348 -31.68725586 31.90161133 C-25.56246545 26.66778493 -19.87900201 21.03167701 -14.19750977 15.32788086 C-12.54492818 13.66987045 -10.88697801 12.01736024 -9.22851562 10.36523438 C-8.17415781 9.31021689 -7.12010962 8.25488986 -6.06640625 7.19921875 C-5.57169327 6.70653 -5.07698029 6.21384125 -4.567276 5.70622253 C-1.95586542 3.0997262 -1.95586542 3.0997262 0 0 Z " fill="#FDE069" transform="translate(318,154)"/>
<path d="M0 0 C2.02452382 6.07357147 0.00849708 12.56589374 -2.37890625 18.328125 C-11.03055195 35.27009476 -24.05230161 45.10869287 -41.74609375 51.125 C-45.15511428 52.0417114 -48.49824091 52.57500775 -52 53 C-46.81239418 46.71486996 -41.12572734 40.99688842 -35.3515625 35.25390625 C-34.32858694 34.23279952 -33.30583472 33.211469 -32.28329468 32.18992615 C-29.61246639 29.52288647 -26.93864718 26.85886564 -24.26416016 24.19549561 C-21.52713264 21.4687615 -18.79299099 18.73913695 -16.05859375 16.00976562 C-10.70852452 10.67036911 -5.35528727 5.33416348 0 0 Z " fill="#FDEA97" transform="translate(339,299)"/>
<path d="M0 0 C3.56078411 3.54050918 6.83427649 7.11068255 10 11 C9.59072266 11.33781494 9.18144531 11.67562988 8.75976562 12.02368164 C1.25784862 18.39418466 -5.5699569 25.46108161 -12.5 32.4375 C-13.81226585 33.75479059 -15.12476395 35.07184986 -16.4375 36.38867188 C-19.62768506 39.5897861 -22.81470651 42.79401865 -26 46 C-30.25188851 42.51005391 -33.15241653 39.70946497 -36 35 C-35.59072266 34.66218506 -35.18144531 34.32437012 -34.75976562 33.97631836 C-27.25784862 27.60581534 -20.4300431 20.53891839 -13.5 13.5625 C-12.18773415 12.24520941 -10.87523605 10.92815014 -9.5625 9.61132812 C-6.37231494 6.4102139 -3.18529349 3.20598135 0 0 Z " fill="#FCD736" transform="translate(108,365)"/>
<path d="M0 0 C12.3779494 -0.12350504 24.64865646 0.17362576 37 1 C31.47349666 7.74080425 25.30550441 13.8071129 19.125 19.9375 C18.04403726 21.01343727 16.96330617 22.08960731 15.8828125 23.16601562 C13.25787359 25.78003292 10.62981372 28.39088596 8 31 C2.81459965 26.12196794 0.58231244 17.98774927 0 11 C-0.06642094 7.33152017 -0.0587482 3.66849864 0 0 Z " fill="#FDE16A" transform="translate(172,282)"/>
<path d="M0 0 C4.57189739 1.76068776 7.34811326 3.77275125 11 7 C9.70860488 9.84125159 8.35592715 11.89060018 6.14257812 14.08447266 C5.56858276 14.65831696 4.9945874 15.23216125 4.40319824 15.82339478 C3.78545532 16.43081512 3.1677124 17.03823547 2.53125 17.6640625 C1.89513794 18.29734467 1.25902588 18.93062683 0.6036377 19.58309937 C-1.42625379 21.60181742 -3.46298851 23.61346919 -5.5 25.625 C-6.87155233 26.98651737 -8.2426514 28.34849149 -9.61328125 29.7109375 C-12.62867695 32.70668365 -15.6483954 35.69799256 -18.67199707 38.68545532 C-19.78471451 39.78689625 -20.89290646 40.89290646 -22 42 C-25.3 39.03 -28.6 36.06 -32 33 C-28.08110199 28.33892537 -24.05182926 23.91265945 -19.7265625 19.62890625 C-19.15795502 19.06171371 -18.58934753 18.49452118 -18.00350952 17.91014099 C-16.21303764 16.12520087 -14.41909516 14.34379744 -12.625 12.5625 C-11.39950677 11.34203061 -10.17424428 10.12132947 -8.94921875 8.90039062 C-5.96880226 5.93091244 -2.98527106 2.96459743 0 0 Z " fill="#FCD836" transform="translate(408,65)"/>
<path d="M0 0 C0.99 0.33 1.98 0.66 3 1 C3 18.16 3 35.32 3 53 C-4.00608204 48.32927864 -8.19238205 43.38077414 -10 35 C-10.14776031 31.32637295 -10.11767437 27.67405528 -10 24 C-13.3 24 -16.6 24 -20 24 C-18.50559669 21.01119339 -17.47707208 19.18114156 -15.390625 16.7578125 C-14.88273438 16.16613281 -14.37484375 15.57445312 -13.8515625 14.96484375 C-13.32304687 14.35769531 -12.79453125 13.75054687 -12.25 13.125 C-11.73695313 12.52558594 -11.22390625 11.92617188 -10.6953125 11.30859375 C-7.28823375 7.36220353 -3.72534966 3.64727347 0 0 Z " fill="#F39F0B" transform="translate(234,258)"/>
<path d="M0 0 C6.36097589 1.91731543 12.14643632 4.36846388 18 7.5 C18.80800049 7.92780762 19.61600098 8.35561523 20.44848633 8.79638672 C28.94815996 13.37752468 36.99665851 18.60978538 45 24 C44.236875 24.721875 43.47375 25.44375 42.6875 26.1875 C40.02110186 28.73807307 40.02110186 28.73807307 38.77416992 31.22143555 C36.30833245 35.08323495 33.18077895 38.06524254 29.92578125 41.26953125 C29.2419487 41.95053391 28.55811615 42.63153656 27.8535614 43.33317566 C25.677874 45.49770768 23.49532083 47.65516424 21.3125 49.8125 C19.83222319 51.28274103 18.35240024 52.75343918 16.87304688 54.22460938 C13.25393443 57.82172302 9.62865016 61.41250895 6 65 C6 62 6 62 7.13891602 60.50032043 C7.67186279 59.97403549 8.20480957 59.44775055 8.75390625 58.90551758 C9.35452881 58.30512161 9.95515137 57.70472565 10.57397461 57.08613586 C11.55829468 56.12504158 11.55829468 56.12504158 12.5625 55.14453125 C13.22838135 54.48289474 13.8942627 53.82125824 14.58032227 53.13957214 C16.71329379 51.0234226 18.8564491 48.91792734 21 46.8125 C22.44599425 45.38154797 23.89131571 43.94991572 25.3359375 42.51757812 C28.8828599 39.00377176 32.43895178 35.49948754 36 32 C34.78214772 28.34644317 33.98392669 28.14194529 30.6875 26.36328125 C29.33229248 25.62609863 29.33229248 25.62609863 27.94970703 24.87402344 C26.97630371 24.3587207 26.00290039 23.84341797 25 23.3125 C24.01499512 22.78301758 23.02999023 22.25353516 22.01513672 21.70800781 C13.48365477 17.16321255 4.81039493 12.97285713 -4 9 C-4 5.08599736 -2.46033213 3.9216444 0 1 C0 0.67 0 0.34 0 0 Z " fill="#FEEA93" transform="translate(351,19)"/>
<path d="M0 0 C8.93890192 3.96626774 15.10600389 13.54409492 21 21 C21.7940625 21.98871094 22.588125 22.97742188 23.40625 23.99609375 C28.25644678 30.1432577 32.76309103 36.45461015 37.0625 43 C37.53993652 43.71816895 38.01737305 44.43633789 38.50927734 45.17626953 C40.81516868 48.74909716 42.58509014 51.6646153 43 56 C41.68 56.99 40.36 57.98 39 59 C38.39414062 58.06800781 37.78828125 57.13601562 37.1640625 56.17578125 C25.20874133 37.92450534 11.7136879 21.15690368 -4 6 C-2.84826645 3.53199953 -1.95216435 1.95216435 0 0 Z " fill="#FEF4C6" transform="translate(424,68)"/>
<path d="M0 0 C3.60883499 1.202945 3.9821893 2.08967626 5.8125 5.3125 C6.27269531 6.09238281 6.73289062 6.87226563 7.20703125 7.67578125 C8 10 8 10 7.27270508 11.99462891 C5.84695839 14.24114402 4.7194844 15.09049048 2.4296875 16.41015625 C1.70563721 16.83772217 0.98158691 17.26528809 0.2355957 17.70581055 C-0.54340088 18.15351807 -1.32239746 18.60122559 -2.125 19.0625 C-9.23388491 23.23994501 -16.03947562 27.65568692 -22.60791016 32.64672852 C-26.85100573 35.72018796 -29.59070623 36.53467987 -35 36 C-30.88670129 31.09526099 -26.61457539 26.4780472 -22.0703125 21.97265625 C-21.43511688 21.33887558 -20.79992126 20.70509491 -20.14547729 20.05210876 C-18.14101284 18.05318594 -16.13307786 16.05779216 -14.125 14.0625 C-12.75497611 12.69749867 -11.38518226 11.3322664 -10.015625 9.96679688 C-6.67973457 6.64185789 -3.34072964 3.32007647 0 0 Z " fill="#FDF0B1" transform="translate(327,165)"/>
<path d="M0 0 C6 1 6 1 7 2 C7.09311889 3.50418739 7.11746028 5.01271356 7.11352539 6.51977539 C7.11344986 7.48069595 7.11337433 8.44161652 7.11329651 9.43165588 C7.10813522 10.476436 7.10297394 11.52121613 7.09765625 12.59765625 C7.0962413 13.66165146 7.09482635 14.72564667 7.09336853 15.82188416 C7.08775064 19.23545083 7.07519511 22.648953 7.0625 26.0625 C7.05748731 28.37044176 7.052924 30.67838455 7.04882812 32.98632812 C7.0377754 38.65757426 7.02101987 44.32878253 7 50 C4.69 50 2.38 50 0 50 C0 33.5 0 17 0 0 Z " fill="#F29E09" transform="translate(255,266)"/>
<path d="M0 0 C2.31 0 4.62 0 7 0 C7 15.84 7 31.68 7 48 C1 46 1 46 0 45 C-0.0928726 43.58774954 -0.11746772 42.17091066 -0.11352539 40.75561523 C-0.11344986 39.85475693 -0.11337433 38.95389862 -0.11329651 38.02574158 C-0.10813522 37.04658279 -0.10297394 36.06742401 -0.09765625 35.05859375 C-0.0962413 34.06118668 -0.09482635 33.0637796 -0.09336853 32.03614807 C-0.08775114 28.83656876 -0.07519571 25.63705831 -0.0625 22.4375 C-0.05748724 20.27408955 -0.05292395 18.11067801 -0.04882812 15.94726562 C-0.03777607 10.63148675 -0.02102104 5.31574829 0 0 Z " fill="#F5B547" transform="translate(255,174)"/>
<path d="M0 0 C5.94 0 11.88 0 18 0 C18 8 18 8 16.45532227 10.46875 C15.74947998 11.1390625 15.0436377 11.809375 14.31640625 12.5 C13.55392578 13.24121094 12.79144531 13.98242188 12.00585938 14.74609375 C10.79639648 15.86177734 10.79639648 15.86177734 9.5625 17 C8.35883789 18.16208984 8.35883789 18.16208984 7.13085938 19.34765625 C1.22430969 25 1.22430969 25 0 25 C0 16.75 0 8.5 0 0 Z " fill="#FEF0B2" transform="translate(237,110)"/>
<path d="M0 0 C5.94 0 11.88 0 18 0 C18 4.95 18 9.9 18 15 C12.06 15 6.12 15 0 15 C0 10.05 0 5.1 0 0 Z " fill="#DB6704" transform="translate(262,380)"/>
<path d="M0 0 C5.94 0 11.88 0 18 0 C18 4.95 18 9.9 18 15 C12.06 15 6.12 15 0 15 C0 10.05 0 5.1 0 0 Z " fill="#DB6704" transform="translate(237,380)"/>
<path d="M0 0 C5.32181335 5.32181335 9.23421464 10.28031785 9.25 18.0625 C9.1675 19.031875 9.085 20.00125 9 21 C11.64 21 14.28 21 17 21 C12.06724802 26.34381465 6.20369232 30.27778461 0 34 C0 22.78 0 11.56 0 0 Z " fill="#E59145" transform="translate(280,181)"/>
<path d="M0 0 C0.99 0.33 1.98 0.66 3 1 C2.64397705 1.44577393 2.2879541 1.89154785 1.92114258 2.35083008 C-7.26023624 13.89032411 -15.82726522 25.72651644 -24 38 C-27 37 -27 37 -28.8125 34.6875 C-30 32 -30 32 -29.24905396 30.02105713 C-28.0384524 28.06221868 -26.83400983 26.592262 -25.20263672 24.97558594 C-24.64220673 24.41530701 -24.08177673 23.85502808 -23.50436401 23.277771 C-22.90222076 22.68595032 -22.30007751 22.09412964 -21.6796875 21.484375 C-21.06102814 20.86854553 -20.44236877 20.25271606 -19.80496216 19.6182251 C-17.83296186 17.65739664 -15.85411263 15.70364699 -13.875 13.75 C-12.53469836 12.41973201 -11.19484917 11.089008 -9.85546875 9.7578125 C-6.57553411 6.4998985 -3.28944058 3.24831467 0 0 Z " fill="#FDF0B1" transform="translate(209,283)"/>
<path d="M0 0 C0 6.93 0 13.86 0 21 C-5.94 21 -11.88 21 -18 21 C-17.00700022 16.0350011 -16.7768788 15.2771705 -13.4375 12.01171875 C-12.72335937 11.30595703 -12.00921875 10.60019531 -11.2734375 9.87304688 C-10.52320313 9.15181641 -9.77296875 8.43058594 -9 7.6875 C-8.24976563 6.94693359 -7.49953125 6.20636719 -6.7265625 5.44335938 C-1.16781394 0 -1.16781394 0 0 0 Z " fill="#FDEB98" transform="translate(280,359)"/>
<path d="M0 0 C2.75582893 0.89542871 4.34976181 1.92525786 6.56176758 3.77758789 C7.2675293 4.36088867 7.97329102 4.94418945 8.70043945 5.54516602 C9.42166992 6.15682617 10.14290039 6.76848633 10.88598633 7.39868164 C11.62655273 8.01420898 12.36711914 8.62973633 13.13012695 9.26391602 C14.95164135 10.77988606 16.7655862 12.3040252 18.57348633 13.83618164 C16.92348633 15.81618164 15.27348633 17.79618164 13.57348633 19.83618164 C9.0609744 18.34046139 5.63325758 15.81368903 1.94848633 12.89868164 C1.37614258 12.45588867 0.80379883 12.0130957 0.21411133 11.55688477 C-2.48484168 9.45107376 -5.09143635 7.3451477 -7.42651367 4.83618164 C-3.1183491 -0.21052543 -3.1183491 -0.21052543 0 0 Z " fill="#FEF5C8" transform="translate(396.426513671875,44.163818359375)"/>
<path d="M0 0 C7.75061125 7.75061125 7.75061125 7.75061125 8.3984375 13.59375 C8.39070313 14.8828125 8.38296875 16.171875 8.375 17.5 C8.38273437 18.7890625 8.39046875 20.078125 8.3984375 21.40625 C7.97374455 25.23681387 7.35752909 26.99389304 5 30 C3.35 31.32 1.7 32.64 0 34 C0 22.78 0 11.56 0 0 Z " fill="#DC6D09" transform="translate(280,277)"/>
<path d="M0 0 C0.76054687 0.09796875 1.52109375 0.1959375 2.3046875 0.296875 C3.18511719 0.40515625 4.06554687 0.5134375 4.97265625 0.625 C6.56013672 0.83382813 6.56013672 0.83382813 8.1796875 1.046875 C9.55059093 1.20994142 10.92169883 1.37129475 12.29296875 1.53125 C13.73444687 1.70252118 15.17585334 1.87439654 16.6171875 2.046875 C17.66447021 2.1711084 17.66447021 2.1711084 18.73291016 2.29785156 C21.68929122 2.66496974 24.34431255 3.10175002 27.1796875 4.046875 C26.02795395 6.51487547 25.13185185 8.09471065 23.1796875 10.046875 C14.12955275 10.56699769 4.83230915 7.38102011 -3.8203125 5.046875 C-3.8203125 1.83896788 -3.55515747 0.09154912 0 0 Z " fill="#FEF4C8" transform="translate(209.8203125,429.953125)"/>
<path d="M0 0 C5.94 0 11.88 0 18 0 C13.33477149 5.62219846 8.48740595 11.16010796 3 16 C2.34 16 1.68 16 1 16 C-0.13494249 10.60902318 -0.07411518 5.48452296 0 0 Z " fill="#FDEEAF" transform="translate(172,283)"/>
<path d="M0 0 C2 1 2 1 2.68603516 2.73071289 C3.34274783 5.17224832 3.99499545 7.61390672 4.625 10.0625 C4.96917969 11.31450195 4.96917969 11.31450195 5.3203125 12.59179688 C6.70482867 17.87850596 7.36561081 22.53411846 7 28 C5.625 30 5.625 30 4 31 C3.34 31 2.68 31 2 31 C1.87882812 30.26136719 1.75765625 29.52273437 1.6328125 28.76171875 C0.76973085 23.53675525 -0.12355883 18.32534095 -1.125 13.125 C-1.80827802 9.36697087 -2.39288216 5.83060105 -2 2 C-1.34 1.34 -0.68 0.68 0 0 Z " fill="#FEF3C6" transform="translate(443,195)"/>
<path d="M0 0 C0 9.24 0 18.48 0 28 C-6.59533074 22.72373541 -6.59533074 22.72373541 -7.40625 17.265625 C-7.61827018 10.44564243 -6.90262926 6.55341276 -2.41015625 1.328125 C-1 0 -1 0 0 0 Z " fill="#E59044" transform="translate(237,181)"/>
<path d="M0 0 C0.33 0 0.66 0 1 0 C1.15855469 0.72703125 1.31710938 1.4540625 1.48046875 2.203125 C3.78158363 12.11953165 6.8317526 21.77567013 13 30 C11 32 9 34 7 36 C0.46182521 24.50183054 -0.4832242 12.93967013 0 0 Z " fill="#E59144" transform="translate(172,293)"/>
<path d="M0 0 C3.38998151 1.94137295 6.3405458 4.03396348 9.3125 6.5625 C17.15999715 12.92470335 25.88776437 18.16000506 34.6953125 23.0859375 C35.78585938 23.69695312 36.87640625 24.30796875 38 24.9375 C38.969375 25.46214844 39.93875 25.98679687 40.9375 26.52734375 C41.9584375 27.25630859 41.9584375 27.25630859 43 28 C43 28.99 43 29.98 43 31 C38.01540732 30.46112512 34.50452607 28.1403657 30.375 25.5 C29.66641846 25.05148682 28.95783691 24.60297363 28.2277832 24.14086914 C22.09665574 20.19223121 16.53535073 15.74222585 11 11 C8.01093444 8.61024583 5.0180669 6.22551599 2.01953125 3.84765625 C1.35308594 3.23792969 0.68664062 2.62820313 0 2 C0 1.34 0 0.68 0 0 Z " fill="#FEF2C2" transform="translate(130,388)"/>
<path d="M0 0 C0.99 0.33 1.98 0.66 3 1 C3 5.62 3 10.24 3 15 C-1.60057086 14.07988583 -4.79672559 12.89559434 -9 11 C-7.59155282 7.78475695 -5.89655214 5.67816132 -3.375 3.25 C-2.74335938 2.63640625 -2.11171875 2.0228125 -1.4609375 1.390625 C-0.73777344 0.70226562 -0.73777344 0.70226562 0 0 Z " fill="#DB6A08" transform="translate(234,258)"/>
<path d="M0 0 C2.31 0 4.62 0 7 0 C7 4.95 7 9.9 7 15 C4.69 15 2.38 15 0 15 C0 10.05 0 5.1 0 0 Z " fill="#E48E43" transform="translate(255,174)"/>
<path d="M0 0 C2.53543785 2.23337888 3.59491022 4.06383452 4.60546875 7.2734375 C4.86650391 8.0984375 5.12753906 8.9234375 5.39648438 9.7734375 C5.78803711 11.06121094 5.78803711 11.06121094 6.1875 12.375 C6.59645508 13.65117187 6.59645508 13.65117187 7.01367188 14.953125 C8.31392998 19.13741423 9.15032867 22.58354797 9 27 C8.01 27.33 7.02 27.66 6 28 C4.8491847 24.60583457 3.7052339 21.20939392 2.5625 17.8125 C2.07426758 16.37293945 2.07426758 16.37293945 1.57617188 14.90429688 C1.10727539 13.50727539 1.10727539 13.50727539 0.62890625 12.08203125 C0.34088135 11.22843018 0.05285645 10.3748291 -0.24389648 9.49536133 C-1.00620582 6.97951897 -1.69055914 4.61351704 -2 2 C-1.34 1.34 -0.68 0.68 0 0 Z " fill="#FEF3C2" transform="translate(482,156)"/>
<path d="M0 0 C6 1 6 1 7 2 C7.07313567 4.53049402 7.09247527 7.03304837 7.0625 9.5625 C7.05798828 10.27341797 7.05347656 10.98433594 7.04882812 11.71679688 C7.03700864 13.47790013 7.01907263 15.23896036 7 17 C4.69 16.01 2.38 15.02 0 14 C0 9.38 0 4.76 0 0 Z " fill="#DB6804" transform="translate(255,266)"/>
<path d="M0 0 C2.31 0 4.62 0 7 0 C7 4.62 7 9.24 7 14 C4.69 14 2.38 14 0 14 C0 9.38 0 4.76 0 0 Z " fill="#DB6704" transform="translate(255,355)"/>
<path d="M0 0 C6.3 6.3 6.3 6.3 8 11 C7.05629883 15.5836914 4.14440651 16.23706233 0 19 C0 12.73 0 6.46 0 0 Z " fill="#F5B446" transform="translate(280,196)"/>
<path d="M0 0 C6.40883978 5.12707182 6.40883978 5.12707182 8 10 C6.28159039 14.51082523 3.94010345 15.84791724 0 19 C0 12.73 0 6.46 0 0 Z " fill="#F29E0C" transform="translate(280,292)"/>
<path d="M0 0 C4.76460199 8.91394779 4.33097066 21.12604187 4 31 C3.67 31 3.34 31 3 31 C2.29069835 27.52491922 1.61166127 24.04455408 0.9375 20.5625 C0.73833984 19.58861328 0.53917969 18.61472656 0.33398438 17.61132812 C-0.85367964 11.38130112 -1.03011101 6.26488898 0 0 Z " fill="#FCE381" transform="translate(493,191)"/>
<path d="M0 0 C4.25993762 3.71223136 6.86861137 8.33781101 9.75 13.125 C10.25660156 13.94871094 10.76320313 14.77242187 11.28515625 15.62109375 C15 21.73907092 15 21.73907092 15 24 C11.4843161 22.82810537 11.29259282 22.26719127 9.58984375 19.140625 C8.94112305 17.96113281 8.94112305 17.96113281 8.27929688 16.7578125 C7.61510742 15.51644531 7.61510742 15.51644531 6.9375 14.25 C6.26750977 13.03183594 6.26750977 13.03183594 5.58398438 11.7890625 C3.48417885 7.93471095 1.48955269 4.14045155 0 0 Z " fill="#FDF0BD" transform="translate(414,138)"/>
<path d="M0 0 C0.33 0 0.66 0 1 0 C1 4.29 1 8.58 1 13 C-4 9 -4 9 -5 6 C-2.625 2.8125 -2.625 2.8125 0 0 Z " fill="#F5B54A" transform="translate(236,196)"/>
<path d="M0 0 C1.90608098 3.21182149 2.22266247 5.53882603 2.125 9.25 C2.10695313 10.14203125 2.08890625 11.0340625 2.0703125 11.953125 C2.03550781 12.96632812 2.03550781 12.96632812 2 14 C-0.3797234 11.6202766 -0.58749232 10.25575205 -1.25 7 C-1.53617187 5.6696875 -1.53617187 5.6696875 -1.828125 4.3125 C-1.88484375 3.549375 -1.9415625 2.78625 -2 2 C-1.34 1.34 -0.68 0.68 0 0 Z " fill="#FDE78D" transform="translate(491,182)"/>
<path d="M0 0 C0.33 0.99 0.66 1.98 1 3 C-1.64 5.31 -4.28 7.62 -7 10 C-7.66 9.67 -8.32 9.34 -9 9 C-6.03 6.03 -3.06 3.06 0 0 Z " fill="#FEEFAE" transform="translate(279,213)"/>
<path d="M0 0 C2.17766075 4.35532149 2.03039555 5.46625958 1 10 C0.34 9.67 -0.32 9.34 -1 9 C-0.67 6.03 -0.34 3.06 0 0 Z " fill="#F9D46F" transform="translate(493,191)"/>
</svg>
